# xmcd
#
# Track frame offsets: 
#        150
#        17359
#        39413
#        61610
#        81137
#        96926
#        115198
#        134086
#        153090
#        173255
#        191402
#
# Disc length: 2752 seconds
#
# Revision: 0
# Processed by: cddbd v1.5.1PL0 Copyright (c) Steve Scherf et al.
# Submitted via: ExactAudioCopy v0.95b1
#
DISCID=770abe0b
DTITLE=Bobby Mack And Night Train - Sugar All Night
DYEAR=1996
DGENRE=Blues
TTITLE0=Somebody's Reading My Mail
TTITLE1=Don't Put No Headstone On My Grave
TTITLE2=Sooner Or Later
TTITLE3=Good Thing
TTITLE4=Torture By Telephone
TTITLE5=Block Party
TTITLE6=The Rest Of My Life
TTITLE7=The Ship's Going Down
TTITLE8=Lost My Way
TTITLE9=I Want To Be Your Driver
TTITLE10=Sugar All Night
EXTD=
EXTT0=
EXTT1=
EXTT2=
EXTT3=
EXTT4=
EXTT5=
EXTT6=
EXTT7=
EXTT8=
EXTT9=
EXTT10=
PLAYORDER=
